HIERARCHY
ROOT Hips
{
 OFFSET 0.000000 0.000000 0.000000
 CHANNELS 6 Xposition Yposition Zposition Yrotation Xrotation Zrotation
 JOINT Chest
 {
  OFFSET 0.000000 14.374500 -0.011500
  CHANNELS 3 Yrotation Xrotation Zrotation
  JOINT Chest2
  {
   OFFSET 0.000000 9.203400 0.023400
   CHANNELS 3 Yrotation Xrotation Zrotation
   JOINT Chest3
   {
    OFFSET 0.000000 9.162700 0.000000
    CHANNELS 3 Yrotation Xrotation Zrotation
    JOINT Chest4
    {
     OFFSET 0.000000 9.153300 0.000000
     CHANNELS 3 Yrotation Xrotation Zrotation
     JOINT Neck
     {
      OFFSET 0.000000 13.353600 0.000000
      CHANNELS 3 Yrotation Xrotation Zrotation
      JOINT Head
      {
       OFFSET 0.000000 8.573800 0.049400
       CHANNELS 3 Yrotation Xrotation Zrotation
       End Site
       {
        OFFSET 0.000000 16.219200 0.026100
       }
      }
     }
     JOINT RightCollar
     {
      OFFSET -2.497100 8.876100 0.000000
      CHANNELS 3 Yrotation Xrotation Zrotation
      JOINT RightShoulder
      {
       OFFSET -12.289200 0.000000 0.000000
       CHANNELS 3 Yrotation Xrotation Zrotation
       JOINT RightElbow
       {
        OFFSET 0.000000 -28.194900 0.000000
        CHANNELS 3 Yrotation Xrotation Zrotation
        JOINT RightWrist
        {
         OFFSET 0.000000 -23.009700 0.007900
         CHANNELS 3 Yrotation Xrotation Zrotation
         End Site
         {
          OFFSET 0.000000 -17.151500 0.000000
         }
        }
       }
      }
     }
     JOINT LeftCollar
     {
      OFFSET 2.497100 8.876100 0.000000
      CHANNELS 3 Yrotation Xrotation Zrotation
      JOINT LeftShoulder
      {
       OFFSET 12.289200 0.000000 0.000000
       CHANNELS 3 Yrotation Xrotation Zrotation
       JOINT LeftElbow
       {
        OFFSET 0.000000 -28.194900 0.000000
        CHANNELS 3 Yrotation Xrotation Zrotation
        JOINT LeftWrist
        {
         OFFSET 0.000000 -23.009700 0.007900
         CHANNELS 3 Yrotation Xrotation Zrotation
         End Site
         {
          OFFSET 0.000000 -17.151500 0.000000
         }
        }
       }
      }
     }
    }
   }
  }
 }
 JOINT RightHip
 {
  OFFSET -11.777600 0.056700 0.005700
  CHANNELS 3 Yrotation Xrotation Zrotation
  JOINT RightKnee
  {
   OFFSET 0.000000 -39.966000 -0.004200
   CHANNELS 3 Yrotation Xrotation Zrotation
   JOINT RightAnkle
   {
    OFFSET 0.000000 -41.981900 0.027400
    CHANNELS 3 Yrotation Xrotation Zrotation
    JOINT RightToe
    {
     OFFSET 0.000000 -9.910600 16.950100
     CHANNELS 3 Yrotation Xrotation Zrotation
     End Site
     {
      OFFSET 0.000000 -1.461000 6.191600
     }
    }
   }
  }
 }
 JOINT LeftHip
 {
  OFFSET 11.777600 0.056700 0.005700
  CHANNELS 3 Yrotation Xrotation Zrotation
  JOINT LeftKnee
  {
   OFFSET 0.000000 -39.966000 -0.004200
   CHANNELS 3 Yrotation Xrotation Zrotation
   JOINT LeftAnkle
   {
    OFFSET 0.000000 -41.981900 0.027400
    CHANNELS 3 Yrotation Xrotation Zrotation
    JOINT LeftToe
    {
     OFFSET 0.000000 -9.910600 16.950100
     CHANNELS 3 Yrotation Xrotation Zrotation
     End Site
     {
      OFFSET 0.000000 -1.461000 6.191600
     }
    }
   }
  }
 }
}
MOTION
Frames: 16
Frame Time: 0.008333
0.653357 130.443759 51.880189 177.182435 -50.921318 -4.122993 2.441636 27.885725 2.571184 0.333493 5.008084 0.359616 0.541323 7.892813 0.581731 1.842942 22.607454 1.947251 -0.745705 13.569538 -0.526298 -0.651887 -11.474500 -0.376427 6.832723 -8.363829 -0.899411 27.126694 -40.394528 -20.387420 24.541118 -8.480853 -1.036775 8.349652 -12.328870 -9.028606 -15.113892 -12.315029 -0.442651 -28.795800 -41.856450 18.395618 -17.735266 -1.794529 2.273034 0.370252 -11.822978 5.449991 5.990067 -26.512876 2.981587 -69.768624 83.214071 -73.450102 -0.135630 -23.968582 9.182680 -0.000639 -0.016811 -0.000373 -3.240606 -25.439879 -3.908328 109.287239 76.638687 118.583031 6.853802 -3.356215 -7.901734 0.007763 -0.005636 0.004539
0.655406 130.446248 51.877251 177.158821 -50.928675 -4.105176 2.306789 27.914336 2.532477 0.311084 5.011336 0.357645 0.505876 7.897895 0.577715 1.735562 22.618775 1.921045 -0.706344 13.560400 -0.785680 -0.553557 -11.482736 -0.653447 6.873644 -8.285162 -0.911028 27.397281 -40.932901 -20.117937 23.949704 -7.604923 -1.194403 8.231786 -11.906851 -8.487254 -15.204495 -12.165631 -0.410773 -28.760812 -42.052513 18.465722 -17.102433 -1.494897 2.617699 0.361119 -11.507157 4.708749 6.026210 -26.520753 2.987203 -69.949522 83.224244 -73.618572 -0.143437 -23.975244 9.175238 0.001990 -0.017016 0.001163 -3.269048 -25.453772 -3.882407 109.435719 76.654706 118.706607 6.847198 -3.292275 -7.916728 0.006877 0.006074 0.004021
0.657039 130.445373 51.877471 177.123560 -50.921138 -4.079079 2.173795 27.927482 2.489854 0.288043 5.014948 0.355698 0.469395 7.903435 0.573631 1.624914 22.630521 1.894101 -0.668218 13.549186 -1.044081 -0.456819 -11.492341 -0.929968 6.933949 -8.202923 -0.921941 27.803325 -41.430358 -19.938482 23.184388 -6.744558 -1.390154 8.135780 -11.482294 -7.972972 -15.278832 -12.006065 -0.384320 -28.688077 -42.256632 18.493726 -16.443276 -1.211178 2.970367 0.322591 -11.187643 4.082243 6.055440 -26.539206 2.992403 -70.038377 83.237215 -73.703858 -0.152517 -23.984528 9.165060 0.001024 -0.008731 0.000599 -3.287258 -25.481071 -3.858778 109.555090 76.661529 118.802587 6.838156 -3.262476 -7.922700 0.004017 0.004926 0.002349
0.659156 130.444666 51.878075 177.109767 -50.915055 -4.073257 2.025627 27.944490 2.449591 0.264624 5.020153 0.354123 0.432255 7.911250 0.570165 1.512440 22.644603 1.868357 -0.633527 13.530466 -1.302019 -0.363628 -11.508967 -1.206178 7.013662 -8.117987 -0.937298 28.314640 -41.895454 -19.835440 22.307010 -5.908454 -1.633769 8.069063 -11.065812 -7.506035 -15.335275 -11.846025 -0.369397 -28.585154 -42.470405 18.478917 -15.772049 -0.934408 3.337875 0.242933 -10.886285 3.586748 6.073133 -26.558037 3.013293 -70.177748 83.249477 -73.845222 -0.177333 -23.991336 9.160596 0.002774 -0.007837 0.001622 -3.317243 -25.506820 -3.836517 109.671421 76.662505 118.901716 6.836490 -3.245776 -7.935116 0.003715 -0.001501 0.002172
0.661540 130.445414 51.877975 177.088543 -50.918318 -4.063681 1.882305 27.972795 2.413281 0.241226 5.027917 0.353227 0.395283 7.922739 0.567809 1.400626 22.662373 1.845496 -0.605598 13.500292 -1.560285 -0.277161 -11.536838 -1.482248 7.110523 -8.031072 -0.957809 28.882279 -42.342474 -19.780289 21.398778 -5.093712 -1.930239 8.016378 -10.666750 -7.112616 -15.378614 -11.689852 -0.369721 -28.458327 -42.694420 18.416424 -15.089805 -0.661920 3.735625 0.127485 -10.614377 3.224704 6.090124 -26.563071 3.034210 -70.296670 83.244935 -73.966419 -0.173123 -23.998020 9.138638 0.003124 -0.005447 0.001827 -3.339542 -25.524542 -3.816009 109.788288 76.660777 119.004763 6.829652 -3.208177 -7.946001 0.002333 -0.001131 0.001364
0.661583 130.447121 51.877184 177.066505 -50.928684 -4.044377 1.736803 28.011714 2.371356 0.218506 5.038108 0.353181 0.359451 7.937918 0.566828 1.292458 22.683634 1.826572 -0.587829 13.456844 -1.818886 -0.201018 -11.577931 -1.757630 7.220702 -7.940837 -0.977568 29.446884 -42.788620 -19.746473 20.537106 -4.295724 -2.273104 7.950120 -10.287866 -6.803880 -15.414539 -11.536900 -0.383461 -28.304019 -42.928485 18.296974 -14.388185 -0.398779 4.176041 -0.021219 -10.380509 2.995067 6.106638 -26.555443 3.036187 -70.351305 83.244870 -74.023436 -0.170624 -24.005583 9.132778 0.001718 -0.003367 0.001004 -3.353880 -25.534845 -3.806881 109.886722 76.655462 119.082822 6.799315 -3.154576 -7.932954 -0.006943 0.010166 -0.004060
0.663423 130.447574 51.878062 177.049397 -50.933620 -4.036104 1.594660 28.047694 2.344626 0.196597 5.049724 0.353955 0.324850 7.955209 0.567115 1.188418 22.706699 1.811658 -0.580859 13.399282 -2.078759 -0.135628 -11.633104 -2.033225 7.342749 -7.840306 -0.992848 29.955773 -43.246564 -19.710195 19.781699 -3.510929 -2.653073 7.849106 -9.943288 -6.588858 -15.441536 -11.380052 -0.407830 -28.111909 -43.174813 18.107368 -13.659929 -0.155544 4.664329 -0.208899 -10.201210 2.906334 6.127995 -26.555366 3.045372 -70.430712 83.238562 -74.095813 -0.172396 -24.008387 9.134373 0.002968 -0.003322 0.001735 -3.359778 -25.539460 -3.797323 109.960972 76.660536 119.156095 6.802787 -3.136378 -7.941650 -0.007031 0.013395 -0.004112
0.666538 130.448062 51.879465 176.987927 -50.942014 -3.997762 1.485633 28.086089 2.331402 0.175219 5.062512 0.355692 0.291140 7.974071 0.568862 1.087759 22.731080 1.801321 -0.582631 13.327320 -2.341437 -0.078363 -11.702797 -2.311230 7.480167 -7.726444 -1.005679 30.387072 -43.715557 -19.659180 19.159406 -2.743337 -3.065487 7.714688 -9.660259 -6.477844 -15.455708 -11.216366 -0.443852 -27.875872 -43.434117 17.839468 -12.900673 0.058972 5.198482 -0.447622 -10.099403 2.970301 6.198228 -26.556011 3.044538 -70.502858 83.233415 -74.139034 -0.167956 -24.008028 9.132051 0.002278 0.001762 0.001332 -3.339739 -25.540310 -3.783779 110.039422 76.670347 119.234212 6.815465 -3.122474 -7.954428 -0.006516 0.005577 -0.003810
0.670720 130.447726 51.882026 176.969169 -50.945746 -3.996149 1.355530 28.123490 2.332373 0.154248 5.076942 0.358672 0.258167 7.995331 0.572594 0.990128 22.757490 1.796784 -0.590360 13.243040 -2.605696 -0.026694 -11.784990 -2.591001 7.634883 -7.603305 -1.021289 30.750694 -44.186799 -19.601415 18.669583 -2.004580 -3.500234 7.571909 -9.449439 -6.475951 -15.459394 -11.050411 -0.493504 -27.581576 -43.709167 17.487578 -12.120416 0.241556 5.767820 -0.758516 -10.087420 3.189365 6.219252 -26.555831 3.052882 -70.550768 83.221367 -74.179661 -0.151003 -24.003376 9.137106 -0.003728 0.003072 -0.002180 -3.367656 -25.552280 -3.762663 110.267924 76.711695 119.464884 6.864183 -3.101428 -7.995883 0.009092 0.004654 0.005316
0.672087 130.447032 51.884796 176.949024 -50.950097 -3.981460 1.230098 28.162776 2.331355 0.134482 5.092770 0.362992 0.227134 8.018673 0.578537 0.899216 22.785434 1.799251 -0.607197 13.152005 -2.865173 0.014476 -11.874141 -2.865027 7.795698 -7.472182 -1.040129 31.064003 -44.652520 -19.549810 18.296304 -1.305327 -3.941818 7.450229 -9.296631 -6.578074 -15.462950 -10.879435 -0.552896 -27.210430 -44.005600 17.048390 -11.347185 0.389218 6.353472 -1.149064 -10.158727 3.560722 6.236888 -26.553469 3.052208 -70.573207 83.223236 -74.199774 -0.158656 -24.000352 9.140334 -0.006031 0.005353 -0.003527 -3.391802 -25.562332 -3.757057 110.412862 76.723555 119.590722 6.881071 -3.093617 -8.010347 0.007505 0.004243 0.004388
0.670344 130.447259 51.886712 176.915019 -50.962217 -3.942885 1.121331 28.208640 2.324180 0.117381 5.109449 0.368830 0.200376 8.043248 0.586993 0.822104 22.813949 1.810576 -0.638488 13.059103 -3.113456 0.038086 -11.965521 -3.125283 7.947537 -7.335017 -1.058165 31.333286 -45.105331 -19.507808 18.020972 -0.653682 -4.377432 7.346409 -9.197145 -6.764464 -15.476998 -10.700667 -0.618522 -26.761150 -44.321841 16.532760 -10.605830 0.498743 6.936031 -1.610780 -10.295540 4.080485 6.283748 -26.542520 3.026710 -70.585110 83.240070 -74.194337 -0.172070 -24.003716 9.142857 -0.003859 0.008735 -0.002256 -3.435363 -25.555761 -3.781855 110.440579 76.693975 119.559750 6.915736 -3.095325 -8.014307 -0.008088 0.006946 -0.004729
0.675101 130.448967 51.888730 176.844058 -50.983852 -3.901207 1.065775 28.261752 2.352506 0.103226 5.127340 0.376080 0.178387 8.069560 0.597796 0.759976 22.843533 1.830231 -0.680080 12.968655 -3.346647 0.047573 -12.054754 -3.368212 8.086940 -7.199782 -1.074183 31.555520 -45.538779 -19.472427 17.829579 -0.056652 -4.796916 7.244406 -9.156221 -7.015249 -15.500138 -10.523952 -0.690411 -26.245016 -44.647976 15.959606 -9.913642 0.565962 7.505661 -2.133048 -10.468883 4.708043 6.354427 -26.527279 3.025474 -70.575919 83.260376 -74.153802 -0.183244 -24.013045 9.146225 -0.003111 0.009431 -0.001819 -3.412881 -25.534417 -3.776013 110.558639 76.717053 119.682967 6.960953 -3.099091 -8.045775 -0.001393 0.002464 -0.000814
0.678077 130.450077 51.891373 176.789649 -51.004112 -3.865099 1.010451 28.314762 2.378894 0.091558 5.146206 0.384264 0.160299 8.097233 0.610111 0.710163 22.873970 1.855586 -0.724090 12.888232 -3.560784 0.050201 -12.134005 -3.590910 8.218098 -7.068195 -1.090364 31.733350 -45.949439 -19.443428 17.699058 0.478719 -5.192951 7.139609 -9.151583 -7.323800 -15.524520 -10.360205 -0.765615 -25.687664 -44.970708 15.351200 -9.280084 0.594848 8.054255 -2.689000 -10.651253 5.370457 6.397875 -26.512364 3.027620 -70.568960 83.279616 -74.132588 -0.199376 -24.018420 9.144087 -0.001249 0.010137 -0.000730 -3.423063 -25.506798 -3.788996 110.633182 76.719886 119.741802 7.000186 -3.128900 -8.068648 -0.008269 0.002894 -0.004835
0.680939 130.448995 51.896231 176.748649 -51.014665 -3.838972 0.957865 28.357608 2.410130 0.082268 5.165129 0.392955 0.145929 8.124934 0.623261 0.671923 22.904029 1.884811 -0.735299 12.799860 -3.747963 0.018042 -12.169865 -3.788458 8.343921 -6.937037 -1.108681 31.877951 -46.331395 -19.425761 17.598740 0.947909 -5.560695 7.016585 -9.166424 -7.678449 -15.542196 -10.215655 -0.841050 -25.128564 -45.278494 14.735839 -8.713922 0.604922 8.564651 -3.237805 -10.831662 6.026877 6.446303 -26.509814 3.018666 -70.589088 83.300287 -74.123650 -0.209020 -24.023491 9.138735 0.000126 0.009914 0.000074 -3.442001 -25.483237 -3.804591 110.704705 76.720199 119.802966 7.034852 -3.205654 -8.089785 -0.012948 -0.004754 -0.007570
0.684503 130.449406 51.900453 176.687068 -51.035892 -3.798784 0.931345 28.406052 2.449411 0.075064 5.183840 0.401706 0.134974 8.152287 0.636662 0.643787 22.933409 1.915878 -0.796620 12.765834 -3.921462 0.029792 -12.224763 -3.964864 8.462878 -6.806616 -1.130006 32.001793 -46.678401 -19.425499 17.501683 1.351255 -5.895979 6.871974 -9.207358 -8.046658 -15.546308 -10.092943 -0.919603 -24.597684 -45.566830 14.141134 -8.233552 0.615817 9.021292 -3.754739 -10.994472 6.651405 6.527838 -26.504619 3.001706 -70.663751 83.319076 -74.148503 -0.211142 -24.024747 9.133707 0.001712 0.005201 0.001001 -3.439579 -25.450681 -3.817845 110.766271 76.717731 119.860004 7.072741 -3.246421 -8.120481 -0.013065 0.001079 -0.007639
0.688313 130.448663 51.906127 176.643325 -51.052752 -3.772960 0.903594 28.444456 2.493115 0.069800 5.202224 0.410378 0.127048 8.179148 0.650054 0.624624 22.961968 1.948001 -0.850377 12.757446 -4.069761 0.033462 -12.260320 -4.118287 8.569996 -6.679656 -1.155723 32.121143 -46.985375 -19.448956 17.385100 1.685619 -6.195309 6.731928 -9.256723 -8.401587 -15.536401 -9.993091 -1.002368 -24.113339 -45.836327 13.589674 -7.852155 0.639756 9.415208 -4.218311 -11.115139 7.214413 6.582654 -26.498938 2.992502 -70.703900 83.329773 -74.151829 -0.205897 -24.025808 9.129839 0.004505 0.003206 0.002634 -3.448899 -25.417295 -3.832011 110.827855 76.711916 119.916139 7.115616 -3.328405 -8.143603 -0.013574 0.002790 -0.007937
